<mxfile>
    <diagram id="eytjVthPBlMdNpsndXKb" name="Page-1">
        <mxGraphModel dx="171" dy="1329" grid="1" gridSize="10" guides="1" tooltips="1" connect="1" arrows="1" fold="1" page="1" pageScale="1" pageWidth="850" pageHeight="1100" math="0" shadow="0">
            <root>
                <mxCell id="0"/>
                <mxCell id="1" parent="0"/>
                <mxCell id="2" value="Player" style="swimlane;fontStyle=1;align=center;verticalAlign=top;childLayout=stackLayout;horizontal=1;startSize=26;horizontalStack=0;resizeParent=1;resizeParentMax=0;resizeLast=0;collapsible=1;marginBottom=0;rounded=0;shadow=0;fontColor=#1A1A1A;strokeColor=#1A1A1A;fillColor=#60a917;swimlaneFillColor=#CDEB8B;glass=0;sketch=0;" parent="1" vertex="1">
                    <mxGeometry x="410" y="390" width="260" height="78" as="geometry"/>
                </mxCell>
                <mxCell id="3" value="+ field: type" style="text;strokeColor=#36393d;fillColor=#CDEB8B;align=left;verticalAlign=top;spacingLeft=4;spacingRight=4;overflow=hidden;rotatable=0;points=[[0,0.5],[1,0.5]];portConstraint=eastwest;fontColor=#1A1A1A;" parent="2" vertex="1">
                    <mxGeometry y="26" width="260" height="26" as="geometry"/>
                </mxCell>
                <mxCell id="5" value="c player(context: CanvasRenderingContext2D)" style="text;strokeColor=#36393d;fillColor=#CDEB8B;align=left;verticalAlign=top;spacingLeft=4;spacingRight=4;overflow=hidden;rotatable=0;points=[[0,0.5],[1,0.5]];portConstraint=eastwest;fontColor=#1A1A1A;" parent="2" vertex="1">
                    <mxGeometry y="52" width="260" height="26" as="geometry"/>
                </mxCell>
                <mxCell id="6" value="main" style="swimlane;fontStyle=1;align=center;verticalAlign=top;childLayout=stackLayout;horizontal=1;startSize=26;horizontalStack=0;resizeParent=1;resizeParentMax=0;resizeLast=0;collapsible=1;marginBottom=0;fillColor=#60a917;rounded=0;glass=0;shadow=0;sketch=0;labelBackgroundColor=none;fontColor=#1A1A1A;swimlaneFillColor=#CDEB8B;strokeColor=#1A1A1A;" parent="1" vertex="1">
                    <mxGeometry x="345" width="160" height="66" as="geometry">
                        <mxRectangle x="340" y="10" width="60" height="26" as="alternateBounds"/>
                    </mxGeometry>
                </mxCell>
                <mxCell id="7" value="" style="text;strokeColor=#36393d;align=left;verticalAlign=top;spacingLeft=4;spacingRight=4;overflow=hidden;rotatable=0;points=[[0,0.5],[1,0.5]];portConstraint=eastwest;fontColor=#1A1A1A;fillColor=#CDEB8B;" parent="6" vertex="1">
                    <mxGeometry y="26" width="160" height="14" as="geometry"/>
                </mxCell>
                <mxCell id="9" value="init()" style="text;strokeColor=#36393d;fillColor=#cdeb8b;align=left;verticalAlign=top;spacingLeft=4;spacingRight=4;overflow=hidden;rotatable=0;points=[[0,0.5],[1,0.5]];portConstraint=eastwest;fontColor=#1A1A1A;" parent="6" vertex="1">
                    <mxGeometry y="40" width="160" height="26" as="geometry"/>
                </mxCell>
                <mxCell id="12" value="shot" style="swimlane;fontStyle=1;align=center;verticalAlign=top;childLayout=stackLayout;horizontal=1;startSize=26;horizontalStack=0;resizeParent=1;resizeParentMax=0;resizeLast=0;collapsible=1;marginBottom=0;fillColor=#60a917;rounded=0;glass=0;shadow=0;sketch=0;labelBackgroundColor=none;fontColor=#1A1A1A;swimlaneFillColor=#CDEB8B;strokeColor=#1A1A1A;noLabel=0;" parent="1" vertex="1">
                    <mxGeometry x="770" y="390" width="230" height="250" as="geometry">
                        <mxRectangle x="340" y="10" width="60" height="26" as="alternateBounds"/>
                    </mxGeometry>
                </mxCell>
                <mxCell id="13" value="- _context: CanvasRenderingContext2D&#10;- _x: number&#10;- _y: number&#10;- _velocity: number&#10;- _length: number&#10;- _thickness: number" style="text;strokeColor=#36393d;align=left;verticalAlign=top;spacingLeft=4;spacingRight=4;overflow=hidden;rotatable=0;points=[[0,0.5],[1,0.5]];portConstraint=eastwest;fontColor=#1A1A1A;fillColor=#CDEB8B;noLabel=0;absoluteArcSize=0;container=0;dropTarget=0;collapsible=0;expand=1;backgroundOutline=0;resizable=1;resizeHeight=0;treeFolding=0;snapToPoint=1;" parent="12" vertex="1">
                    <mxGeometry y="26" width="230" height="94" as="geometry"/>
                </mxCell>
                <mxCell id="14" value="c constructor(who)&#10;+ shoot(number, number): void&#10;+ shootAnimation():void&#10;+ hit(): void&#10;- _clear():void&#10;- _render(): void&#10;+ getX(): number&#10;+ getY(): number&#10;" style="text;strokeColor=#36393d;fillColor=#cdeb8b;align=left;verticalAlign=top;spacingLeft=4;spacingRight=4;overflow=hidden;rotatable=0;points=[[0,0.5],[1,0.5]];portConstraint=eastwest;fontColor=#1A1A1A;" parent="12" vertex="1">
                    <mxGeometry y="120" width="230" height="130" as="geometry"/>
                </mxCell>
                <mxCell id="22" value="enemy" style="swimlane;fontStyle=3;align=center;verticalAlign=top;childLayout=stackLayout;horizontal=1;startSize=26;horizontalStack=0;resizeParent=1;resizeParentMax=0;resizeLast=0;collapsible=1;marginBottom=0;fillColor=#60a917;rounded=0;glass=0;shadow=0;sketch=0;labelBackgroundColor=none;fontColor=#1A1A1A;swimlaneFillColor=#CDEB8B;strokeColor=#1A1A1A;" parent="1" vertex="1">
                    <mxGeometry x="1060" y="390" width="240" height="310" as="geometry">
                        <mxRectangle x="1060" y="390" width="60" height="26" as="alternateBounds"/>
                    </mxGeometry>
                </mxCell>
                <mxCell id="23" value="# _y: number&#10;# _live: number&#10;# _speed: number&#10;# _enemyColumn: EnemyColumn&#10;# _shot: Shot&#10;# _shoots: Array&lt;Shot&gt;&#10;# _sheet: HTMLImmageElement" style="text;strokeColor=#36393d;align=left;verticalAlign=top;spacingLeft=4;spacingRight=4;overflow=hidden;rotatable=0;points=[[0,0.5],[1,0.5]];portConstraint=eastwest;fontColor=#1A1A1A;fillColor=#CDEB8B;" parent="22" vertex="1">
                    <mxGeometry y="26" width="240" height="114" as="geometry"/>
                </mxCell>
                <mxCell id="24" value="c constructor(EnemyColumn, number)&#10;+ renderEnemy(): void&#10;+ moveDown():void&#10;+ clear(number): void&#10;+ hit(): void&#10;# _dead():void&#10;# _renderDummy():void&#10;# _renderImg():void&#10;# _gameOver():void&#10;# _shoot():void&#10;# _fireShot():void" style="text;strokeColor=#36393d;fillColor=#cdeb8b;align=left;verticalAlign=top;spacingLeft=4;spacingRight=4;overflow=hidden;rotatable=0;points=[[0,0.5],[1,0.5]];portConstraint=eastwest;fontColor=#1A1A1A;" parent="22" vertex="1">
                    <mxGeometry y="140" width="240" height="170" as="geometry"/>
                </mxCell>
                <mxCell id="25" value="EnemyL1" style="swimlane;fontStyle=1;align=center;verticalAlign=top;childLayout=stackLayout;horizontal=1;startSize=26;horizontalStack=0;resizeParent=1;resizeParentMax=0;resizeLast=0;collapsible=1;marginBottom=0;fillColor=#60a917;rounded=0;glass=0;shadow=0;sketch=0;labelBackgroundColor=none;fontColor=#1A1A1A;swimlaneFillColor=#CDEB8B;strokeColor=#1A1A1A;" parent="1" vertex="1">
                    <mxGeometry x="1060" y="780" width="160" height="106" as="geometry">
                        <mxRectangle x="340" y="10" width="60" height="26" as="alternateBounds"/>
                    </mxGeometry>
                </mxCell>
                <mxCell id="26" value="_live: number&#10;- _tileFrameX: number&#10;- _tileFrameY: number" style="text;strokeColor=#36393d;align=left;verticalAlign=top;spacingLeft=4;spacingRight=4;overflow=hidden;rotatable=0;points=[[0,0.5],[1,0.5]];portConstraint=eastwest;fontColor=#1A1A1A;fillColor=#CDEB8B;" parent="25" vertex="1">
                    <mxGeometry y="26" width="160" height="54" as="geometry"/>
                </mxCell>
                <mxCell id="27" value="_renderImg(): void" style="text;strokeColor=#36393d;fillColor=#cdeb8b;align=left;verticalAlign=top;spacingLeft=4;spacingRight=4;overflow=hidden;rotatable=0;points=[[0,0.5],[1,0.5]];portConstraint=eastwest;fontColor=#1A1A1A;" parent="25" vertex="1">
                    <mxGeometry y="80" width="160" height="26" as="geometry"/>
                </mxCell>
                <mxCell id="30" value="" style="endArrow=diamondThin;endFill=1;html=1;strokeColor=#2D7600;strokeWidth=2;exitX=0.5;exitY=0;exitDx=0;exitDy=0;entryX=0.335;entryY=1.025;entryDx=0;entryDy=0;entryPerimeter=0;fontColor=#1A1A1A;labelBackgroundColor=#2a2a2a;jumpStyle=gap;jumpSize=16;rounded=0;fillColor=#60a917;" parent="1" source="25" target="24" edge="1">
                    <mxGeometry width="160" relative="1" as="geometry">
                        <mxPoint x="870" y="740" as="sourcePoint"/>
                        <mxPoint x="1140" y="750" as="targetPoint"/>
                        <Array as="points"/>
                    </mxGeometry>
                </mxCell>
                <mxCell id="31" value="EnemyColumn" style="swimlane;fontStyle=1;align=center;verticalAlign=top;childLayout=stackLayout;horizontal=1;startSize=26;horizontalStack=0;resizeParent=1;resizeParentMax=0;resizeLast=0;collapsible=1;marginBottom=0;fillColor=#60a917;rounded=0;glass=0;shadow=0;sketch=0;labelBackgroundColor=none;fontColor=#1A1A1A;swimlaneFillColor=#CDEB8B;strokeColor=#1A1A1A;" parent="1" vertex="1">
                    <mxGeometry x="1060" y="40" width="250" height="210" as="geometry">
                        <mxRectangle x="340" y="10" width="60" height="26" as="alternateBounds"/>
                    </mxGeometry>
                </mxCell>
                <mxCell id="32" value="- _x: number&#10;- _speed: number&#10;- _enemyCorp: EnemyCorp&#10;- _enemyColumn: Array&lt;Enemy&gt;" style="text;strokeColor=#36393d;align=left;verticalAlign=top;spacingLeft=4;spacingRight=4;overflow=hidden;rotatable=0;points=[[0,0.5],[1,0.5]];portConstraint=eastwest;fontColor=#1A1A1A;fillColor=#CDEB8B;" parent="31" vertex="1">
                    <mxGeometry y="26" width="250" height="74" as="geometry"/>
                </mxCell>
                <mxCell id="33" value="c constructor(EnemyCorp, number, number)&#10;+ move(): void&#10;+ addEnemy(): void&#10;+ getCorp(): EnemyCorp&#10;+ getX(): number&#10;+ removeEnemy(): void&#10;getEnemyIndex(): number" style="text;strokeColor=#36393d;fillColor=#cdeb8b;align=left;verticalAlign=top;spacingLeft=4;spacingRight=4;overflow=hidden;rotatable=0;points=[[0,0.5],[1,0.5]];portConstraint=eastwest;fontColor=#1A1A1A;" parent="31" vertex="1">
                    <mxGeometry y="100" width="250" height="110" as="geometry"/>
                </mxCell>
                <mxCell id="35" style="edgeStyle=orthogonalEdgeStyle;rounded=0;orthogonalLoop=1;jettySize=auto;html=1;entryX=0.5;entryY=0;entryDx=0;entryDy=0;endArrow=diamondThin;endFill=1;fontColor=#1A1A1A;strokeColor=#2D7600;strokeWidth=2;jumpStyle=none;exitX=0.48;exitY=1;exitDx=0;exitDy=0;exitPerimeter=0;fillColor=#60a917;" parent="1" source="33" target="22" edge="1">
                    <mxGeometry relative="1" as="geometry">
                        <mxPoint x="1170" y="280" as="sourcePoint"/>
                        <mxPoint x="1070" y="483" as="targetPoint"/>
                    </mxGeometry>
                </mxCell>
                <mxCell id="37" value="EnemyCorp" style="swimlane;fontStyle=1;align=center;verticalAlign=top;childLayout=stackLayout;horizontal=1;startSize=26;horizontalStack=0;resizeParent=1;resizeParentMax=0;resizeLast=0;collapsible=1;marginBottom=0;fillColor=#60a917;rounded=0;glass=0;shadow=0;sketch=0;labelBackgroundColor=none;fontColor=#1A1A1A;swimlaneFillColor=#CDEB8B;strokeColor=#1A1A1A;" parent="1" vertex="1">
                    <mxGeometry x="770" y="40" width="220" height="180" as="geometry">
                        <mxRectangle x="340" y="10" width="60" height="26" as="alternateBounds"/>
                    </mxGeometry>
                </mxCell>
                <mxCell id="38" value="- _enemyCorp: Array&lt;EnemyColumn&gt;&#10;- _right: boolean&#10;- _down: boolean&#10;- _newLine: number" style="text;strokeColor=#36393d;align=left;verticalAlign=top;spacingLeft=4;spacingRight=4;overflow=hidden;rotatable=0;points=[[0,0.5],[1,0.5]];portConstraint=eastwest;fontColor=#1A1A1A;fillColor=#CDEB8B;" parent="37" vertex="1">
                    <mxGeometry y="26" width="220" height="74" as="geometry"/>
                </mxCell>
                <mxCell id="39" value="c constructor(number, number)&#10;+ corpAnimation(): void&#10;- _renderCorp(): void&#10;+ getRight(): boolean&#10;+ getDown(): boolean" style="text;strokeColor=#36393d;fillColor=#cdeb8b;align=left;verticalAlign=top;spacingLeft=4;spacingRight=4;overflow=hidden;rotatable=0;points=[[0,0.5],[1,0.5]];portConstraint=eastwest;fontColor=#1A1A1A;" parent="37" vertex="1">
                    <mxGeometry y="100" width="220" height="80" as="geometry"/>
                </mxCell>
                <mxCell id="40" style="edgeStyle=orthogonalEdgeStyle;rounded=0;orthogonalLoop=1;jettySize=auto;html=1;entryX=0;entryY=0.5;entryDx=0;entryDy=0;endArrow=diamondThin;endFill=1;fontColor=#1A1A1A;strokeColor=#2D7600;strokeWidth=2;jumpStyle=none;exitX=1;exitY=0.5;exitDx=0;exitDy=0;fillColor=#60a917;" parent="1" source="38" target="32" edge="1">
                    <mxGeometry relative="1" as="geometry">
                        <mxPoint x="940" y="103" as="sourcePoint"/>
                        <mxPoint x="950" y="230" as="targetPoint"/>
                    </mxGeometry>
                </mxCell>
                <mxCell id="42" style="edgeStyle=orthogonalEdgeStyle;rounded=0;jumpStyle=gap;jumpSize=16;orthogonalLoop=1;jettySize=auto;html=1;labelBackgroundColor=#2a2a2a;endArrow=diamondThin;endFill=1;strokeColor=#2D7600;strokeWidth=2;fontColor=#1A1A1A;entryX=-0.016;entryY=0.41;entryDx=0;entryDy=0;entryPerimeter=0;fillColor=#60a917;" parent="1" source="13" target="23" edge="1">
                    <mxGeometry relative="1" as="geometry">
                        <mxPoint x="1060" y="463" as="targetPoint"/>
                    </mxGeometry>
                </mxCell>
                <mxCell id="43" style="edgeStyle=orthogonalEdgeStyle;rounded=0;jumpStyle=gap;jumpSize=16;orthogonalLoop=1;jettySize=auto;html=1;labelBackgroundColor=#2a2a2a;endArrow=diamondThin;endFill=1;strokeColor=#2D7600;strokeWidth=2;fontColor=#1A1A1A;entryX=1.01;entryY=0.874;entryDx=0;entryDy=0;entryPerimeter=0;fillColor=#60a917;" parent="1" source="13" target="5" edge="1">
                    <mxGeometry relative="1" as="geometry">
                        <mxPoint x="700" y="463" as="targetPoint"/>
                    </mxGeometry>
                </mxCell>
                <mxCell id="44" value="main" style="swimlane;fontStyle=1;align=center;verticalAlign=top;childLayout=stackLayout;horizontal=1;startSize=26;horizontalStack=0;resizeParent=1;resizeParentMax=0;resizeLast=0;collapsible=1;marginBottom=0;fillColor=#60a917;rounded=0;glass=0;shadow=0;sketch=0;labelBackgroundColor=none;fontColor=#1A1A1A;swimlaneFillColor=#CDEB8B;strokeColor=#1A1A1A;" parent="1" vertex="1">
                    <mxGeometry x="1520" y="40" width="160" height="78" as="geometry">
                        <mxRectangle x="340" y="10" width="60" height="26" as="alternateBounds"/>
                    </mxGeometry>
                </mxCell>
                <mxCell id="45" value="+ field: type" style="text;strokeColor=#36393d;align=left;verticalAlign=top;spacingLeft=4;spacingRight=4;overflow=hidden;rotatable=0;points=[[0,0.5],[1,0.5]];portConstraint=eastwest;fontColor=#1A1A1A;fillColor=#CDEB8B;" parent="44" vertex="1">
                    <mxGeometry y="26" width="160" height="26" as="geometry"/>
                </mxCell>
                <mxCell id="46" value="+ method(type): type" style="text;strokeColor=#36393d;fillColor=#cdeb8b;align=left;verticalAlign=top;spacingLeft=4;spacingRight=4;overflow=hidden;rotatable=0;points=[[0,0.5],[1,0.5]];portConstraint=eastwest;fontColor=#1A1A1A;" parent="44" vertex="1">
                    <mxGeometry y="52" width="160" height="26" as="geometry"/>
                </mxCell>
                <mxCell id="57" style="edgeStyle=orthogonalEdgeStyle;rounded=0;orthogonalLoop=1;jettySize=auto;html=1;endArrow=open;endFill=0;strokeColor=#2D7600;strokeWidth=2;fillColor=#60a917;fontColor=#1A1A1A;" parent="1" source="47" target="9" edge="1">
                    <mxGeometry relative="1" as="geometry"/>
                </mxCell>
                <mxCell id="47" value="gameHelper" style="swimlane;fontStyle=1;align=center;verticalAlign=top;childLayout=stackLayout;horizontal=1;startSize=26;horizontalStack=0;resizeParent=1;resizeParentMax=0;resizeLast=0;collapsible=1;marginBottom=0;fillColor=#60a917;rounded=0;glass=0;shadow=0;sketch=0;labelBackgroundColor=none;fontColor=#1A1A1A;swimlaneFillColor=#CDEB8B;strokeColor=#1A1A1A;" parent="1" vertex="1">
                    <mxGeometry x="400" y="106" width="250" height="120" as="geometry">
                        <mxRectangle x="400" y="106" width="110" height="26" as="alternateBounds"/>
                    </mxGeometry>
                </mxCell>
                <mxCell id="48" value="+ CANVAS: HTMLCanvasElement&#10;+ CONTEXT: CanvasRenderingContext2D" style="text;strokeColor=#36393d;align=left;verticalAlign=top;spacingLeft=4;spacingRight=4;overflow=hidden;rotatable=0;points=[[0,0.5],[1,0.5]];portConstraint=eastwest;fontColor=#1A1A1A;fillColor=#CDEB8B;" parent="47" vertex="1">
                    <mxGeometry y="26" width="250" height="44" as="geometry"/>
                </mxCell>
                <mxCell id="49" value="+ init(): void&#10;+ getCanvas(): HTMLCanvasElement&#10;+ getContext(): CanvasRenderingContext2D" style="text;strokeColor=#36393d;fillColor=#cdeb8b;align=left;verticalAlign=top;spacingLeft=4;spacingRight=4;overflow=hidden;rotatable=0;points=[[0,0.5],[1,0.5]];portConstraint=eastwest;fontColor=#1A1A1A;" parent="47" vertex="1">
                    <mxGeometry y="70" width="250" height="50" as="geometry"/>
                </mxCell>
                <mxCell id="53" value="gameSettings" style="swimlane;fontStyle=1;align=center;verticalAlign=top;childLayout=stackLayout;horizontal=1;startSize=26;horizontalStack=0;resizeParent=1;resizeParentMax=0;resizeLast=0;collapsible=1;marginBottom=0;fillColor=#60a917;rounded=0;glass=0;shadow=0;sketch=0;labelBackgroundColor=none;fontColor=#1A1A1A;swimlaneFillColor=#CDEB8B;strokeColor=#1A1A1A;" parent="1" vertex="1">
                    <mxGeometry x="80" y="106" width="180" height="300" as="geometry">
                        <mxRectangle x="80" y="106" width="120" height="26" as="alternateBounds"/>
                    </mxGeometry>
                </mxCell>
                <mxCell id="54" value="+ zoom: number&#10;+ size: number&#10;+ enemyGap: number&#10;+ _scaledTileSize: number&#10;+ _TILESIZE: number&#10;&#10;+ ENEMYS: number&#10;+ ROWS: number&#10;+ NEWENEMYS: number" style="text;strokeColor=#36393d;align=left;verticalAlign=top;spacingLeft=4;spacingRight=4;overflow=hidden;rotatable=0;points=[[0,0.5],[1,0.5]];portConstraint=eastwest;fontColor=#1A1A1A;fillColor=#CDEB8B;" parent="53" vertex="1">
                    <mxGeometry y="26" width="180" height="134" as="geometry"/>
                </mxCell>
                <mxCell id="55" value="+ setCanvasSize(): void&#10;+ getTileSize(): number&#10;+ getScaledTileSize(): number&#10;+ _resizeCanvas(): void&#10;+ getEnemys(): number&#10;+ getRows(): number&#10;+ getNewEnemys(): number&#10;+ getEnemyGap(): number&#10;+ getDownSpeed(): number" style="text;strokeColor=#36393d;fillColor=#cdeb8b;align=left;verticalAlign=top;spacingLeft=4;spacingRight=4;overflow=hidden;rotatable=0;points=[[0,0.5],[1,0.5]];portConstraint=eastwest;fontColor=#1A1A1A;" parent="53" vertex="1">
                    <mxGeometry y="160" width="180" height="140" as="geometry"/>
                </mxCell>
                <mxCell id="56" style="edgeStyle=orthogonalEdgeStyle;rounded=0;orthogonalLoop=1;jettySize=auto;html=1;endArrow=open;endFill=0;fontColor=#1A1A1A;strokeColor=#2D7600;strokeWidth=2;fillColor=#60a917;" parent="1" source="48" target="54" edge="1">
                    <mxGeometry relative="1" as="geometry"/>
                </mxCell>
                <mxCell id="58" value="gameObjects" style="swimlane;fontStyle=1;align=center;verticalAlign=top;childLayout=stackLayout;horizontal=1;startSize=26;horizontalStack=0;resizeParent=1;resizeParentMax=0;resizeLast=0;collapsible=1;marginBottom=0;fillColor=#60a917;rounded=0;glass=0;shadow=0;sketch=0;labelBackgroundColor=none;fontColor=#1A1A1A;swimlaneFillColor=#CDEB8B;strokeColor=#1A1A1A;" parent="1" vertex="1">
                    <mxGeometry x="80" y="500" width="220" height="170" as="geometry">
                        <mxRectangle x="80" y="500" width="130" height="26" as="alternateBounds"/>
                    </mxGeometry>
                </mxCell>
                <mxCell id="59" value="+ players: Array&lt;Player&gt;&#10;+ shots: Array&lt;Shot&gt;&#10;+ enemyCorp: EnemyCorp" style="text;strokeColor=#36393d;align=left;verticalAlign=top;spacingLeft=4;spacingRight=4;overflow=hidden;rotatable=0;points=[[0,0.5],[1,0.5]];portConstraint=eastwest;fontColor=#1A1A1A;fillColor=#CDEB8B;" parent="58" vertex="1">
                    <mxGeometry y="26" width="220" height="54" as="geometry"/>
                </mxCell>
                <mxCell id="60" value="+ newPlayer(String, String, String): void&#10;+ getPlayers(): Array&lt;Player&gt;&#10;+ getShots(): Array&lt;Shot&gt;&#10;+ addShot(Shot): void&#10;+ initEnemyCorp(): void&#10;+ getEnemyCorp(): EnemyCorp" style="text;strokeColor=#36393d;fillColor=#cdeb8b;align=left;verticalAlign=top;spacingLeft=4;spacingRight=4;overflow=hidden;rotatable=0;points=[[0,0.5],[1,0.5]];portConstraint=eastwest;fontColor=#1A1A1A;" parent="58" vertex="1">
                    <mxGeometry y="80" width="220" height="90" as="geometry"/>
                </mxCell>
                <mxCell id="62" style="edgeStyle=orthogonalEdgeStyle;rounded=0;orthogonalLoop=1;jettySize=auto;html=1;entryX=1;entryY=0.5;entryDx=0;entryDy=0;endArrow=diamondThin;endFill=1;strokeColor=#2D7600;strokeWidth=2;fillColor=#60a917;fontColor=#1A1A1A;" parent="1" source="3" target="59" edge="1">
                    <mxGeometry relative="1" as="geometry"/>
                </mxCell>
                <mxCell id="65" style="edgeStyle=orthogonalEdgeStyle;rounded=0;orthogonalLoop=1;jettySize=auto;html=1;entryX=-0.002;entryY=0.63;entryDx=0;entryDy=0;entryPerimeter=0;endArrow=open;endFill=0;strokeColor=#2D7600;strokeWidth=2;fillColor=#60a917;fontColor=#1A1A1A;" parent="1" source="55" target="60" edge="1">
                    <mxGeometry relative="1" as="geometry">
                        <Array as="points">
                            <mxPoint x="60" y="336"/>
                            <mxPoint x="60" y="637"/>
                        </Array>
                    </mxGeometry>
                </mxCell>
                <mxCell id="66" style="edgeStyle=orthogonalEdgeStyle;rounded=0;orthogonalLoop=1;jettySize=auto;html=1;entryX=1.013;entryY=0.892;entryDx=0;entryDy=0;entryPerimeter=0;endArrow=open;endFill=0;strokeColor=#2D7600;strokeWidth=2;fillColor=#60a917;fontColor=#1A1A1A;" parent="1" source="13" target="59" edge="1">
                    <mxGeometry relative="1" as="geometry">
                        <Array as="points">
                            <mxPoint x="720" y="463"/>
                            <mxPoint x="720" y="574"/>
                        </Array>
                    </mxGeometry>
                </mxCell>
                <mxCell id="67" style="edgeStyle=orthogonalEdgeStyle;rounded=0;orthogonalLoop=1;jettySize=auto;html=1;entryX=0.75;entryY=0;entryDx=0;entryDy=0;endArrow=open;endFill=0;strokeColor=#2D7600;strokeWidth=2;fillColor=#60a917;fontColor=#1A1A1A;" parent="1" source="38" target="58" edge="1">
                    <mxGeometry relative="1" as="geometry">
                        <Array as="points">
                            <mxPoint x="710" y="103"/>
                            <mxPoint x="710" y="270"/>
                            <mxPoint x="320" y="270"/>
                            <mxPoint x="320" y="430"/>
                            <mxPoint x="245" y="430"/>
                        </Array>
                    </mxGeometry>
                </mxCell>
            </root>
        </mxGraphModel>
    </diagram>
</mxfile>